# xmcd
#
# Track frame offsets:
#	182
#	13007
#	25747
#	41955
#	58560
#	72032
#	89450
#	99497
#	117390
#	129940
#	148560
#	167230
#
# Disc length: 2432 seconds
#
# Revision: 5
# Processed by: cddbd v1.5.2PL0 Copyright (c) Steve Scherf et al.
# Submitted via: EasyCDDAExtractor 16.0.9.1
#
DISCID=a0097e0c
DTITLE=Michal Tučný - Anka Chřestýš and Poslední kovboj
DYEAR=1983
DGENRE=Country
TTITLE0=Veliká pláň (Tellico Plains)
TTITLE1=Ukolébavka z Tennessee (Tennessee Lullaby)
TTITLE2=Báječná ženská (Good Hearted Woman)
TTITLE3=Poslední kovboj (The Last Cowboy)
TTITLE4=Boty z kůže toulavejch psů (Stray Dog Leather Boots)
TTITLE5=Tam u nebeských bran
TTITLE6=Stará dobrá country (Good Ole Country Music)
TTITLE7=Máma Chřestýš (Rattlesnake Mamma)
TTITLE8=I Saw The Light (Lodní zvon)
TTITLE9=Pověste ho vejš
TTITLE10=Dám sbohem řekám (Goodbye To A River)
TTITLE11=Jak to doopravdy bylo s Ankou Chřestýšem, Posledním kovbojem a Smokey
TTITLE11=Sidem
EXTD=YEAR: 1994
EXTT0=
EXTT1=
EXTT2=
EXTT3=
EXTT4=
EXTT5=
EXTT6=
EXTT7=
EXTT8=
EXTT9=
EXTT10=
EXTT11=
PLAYORDER=
